<svg width="16" height="15" viewBox="0 0 16 15" fill="none" xmlns="http://www.w3.org/2000/svg">
<path d="M12.512 14.4H3.488C2.56375 14.3996 1.67741 14.0325 1.02349 13.3793C0.369571 12.7262 0.00148312 11.8403 0 10.916V6.16881C0.00148312 5.24456 0.369571 4.35865 1.02349 3.70548C1.67741 3.05231 2.56375 2.68524 3.488 2.68481C3.52017 2.68604 3.55196 2.67754 3.57923 2.66041C3.60649 2.64328 3.62795 2.61833 3.6408 2.58881L3.688 2.49281L3.7544 2.35281C3.9632 1.91281 4.2 1.41441 4.344 1.12641C4.50049 0.789525 4.75012 0.504453 5.0634 0.304859C5.37668 0.105266 5.74054 -0.000513297 6.112 1.32245e-05H9.88C10.2527 -0.00135832 10.618 0.103982 10.9327 0.303585C11.2474 0.503188 11.4984 0.788711 11.656 1.12641C11.7816 1.37841 11.976 1.78241 12.1576 2.17281L12.2712 2.41281L12.3512 2.58881C12.3666 2.61791 12.3896 2.64224 12.4178 2.65916C12.446 2.67609 12.4783 2.68496 12.5112 2.68481C13.4356 2.68502 14.3221 3.052 14.9762 3.7052C15.6303 4.35839 15.9985 5.24442 16 6.16881V10.916C15.9985 11.8403 15.6304 12.7262 14.9765 13.3793C14.3226 14.0325 13.4363 14.3996 12.512 14.4ZM8 5.12001C7.58497 5.11964 7.17399 5.20161 6.79086 5.36118C6.40773 5.52075 6.06007 5.75474 5.768 6.04961C5.47654 6.33949 5.24578 6.68454 5.08919 7.06461C4.9326 7.44469 4.85332 7.85216 4.856 8.26321C4.85589 8.67593 4.93717 9.08462 5.09519 9.46589C5.2532 9.84716 5.48484 10.1935 5.77686 10.4852C6.06888 10.7768 6.41555 11.008 6.79702 11.1656C7.17849 11.3231 7.58728 11.4038 8 11.4032C8.4117 11.4039 8.81946 11.3231 9.19979 11.1655C9.58012 11.0079 9.92549 10.7765 10.216 10.4848C10.5094 10.1943 10.7425 9.84854 10.9018 9.46755C11.0612 9.08656 11.1436 8.67783 11.1443 8.26488C11.1451 7.85192 11.0641 7.4429 10.9062 7.06134C10.7482 6.67978 10.5164 6.33323 10.224 6.04161C9.93281 5.74836 9.58626 5.51588 9.20447 5.35767C8.82268 5.19946 8.41327 5.11868 8 5.12001ZM12.488 4.92881C12.3463 4.93055 12.2083 4.97407 12.0912 5.05392C11.9741 5.13377 11.8832 5.24639 11.8298 5.37768C11.7765 5.50897 11.763 5.65309 11.7912 5.79197C11.8194 5.93086 11.888 6.05834 11.9883 6.15844C12.0886 6.25853 12.2162 6.3268 12.3552 6.35469C12.4941 6.38257 12.6382 6.36883 12.7694 6.31518C12.9006 6.26154 13.013 6.17038 13.0926 6.05312C13.1722 5.93586 13.2154 5.79772 13.2168 5.65601C13.2169 5.56043 13.1981 5.46576 13.1615 5.37747C13.1249 5.28918 13.0711 5.20901 13.0034 5.14156C12.9356 5.07412 12.8552 5.02075 12.7668 4.98451C12.6783 4.94827 12.5836 4.92989 12.488 4.93041V4.92881ZM8 10.2048C7.74471 10.2056 7.49178 10.1559 7.25575 10.0586C7.01971 9.96128 6.80522 9.81833 6.62459 9.63792C6.44396 9.45751 6.30074 9.2432 6.20316 9.00729C6.10559 8.77137 6.05558 8.51851 6.056 8.26321V8.25521C6.05255 8.00244 6.10039 7.75159 6.19665 7.51783C6.2929 7.28408 6.43556 7.07227 6.616 6.89521C6.84094 6.66731 7.11869 6.49851 7.42458 6.40379C7.73046 6.30908 8.05501 6.2914 8.36937 6.35231C8.68374 6.41322 8.97819 6.55085 9.22656 6.75295C9.47493 6.95506 9.66953 7.21539 9.79307 7.51081C9.91661 7.80623 9.96526 8.1276 9.9347 8.44635C9.90414 8.7651 9.79531 9.07137 9.61789 9.33793C9.44047 9.6045 9.19995 9.82311 8.9177 9.97434C8.63545 10.1256 8.32021 10.2047 8 10.2048Z" fill="white"/>
</svg>
