<svg width="20" height="20" viewBox="0 0 20 20" fill="none" xmlns="http://www.w3.org/2000/svg">
<path d="M15 6.66667C15 7.10869 14.8244 7.53262 14.5118 7.84518C14.1993 8.15774 13.7754 8.33333 13.3333 8.33333C12.8913 8.33333 12.4674 8.15774 12.1548 7.84518C11.8423 7.53262 11.6667 7.10869 11.6667 6.66667C11.6667 6.22464 11.8423 5.80072 12.1548 5.48816C12.4674 5.17559 12.8913 5 13.3333 5C13.7754 5 14.1993 5.17559 14.5118 5.48816C14.8244 5.80072 15 6.22464 15 6.66667Z" fill="white"/>
<path fill-rule="evenodd" clip-rule="evenodd" d="M9.95251 1.04169H10.0475C11.9717 1.04169 13.4792 1.04169 14.6558 1.20002C15.8592 1.36169 16.8092 1.70002 17.555 2.44502C18.3008 3.19085 18.6383 4.14085 18.8 5.34502C18.9583 6.52085 18.9583 8.02835 18.9583 9.95252V10.0259C18.9583 11.6167 18.9583 12.9184 18.8717 13.9784C18.785 15.045 18.6075 15.9342 18.2092 16.6742C18.0342 17 17.8175 17.2925 17.555 17.555C16.8092 18.3009 15.8592 18.6384 14.655 18.8C13.4792 18.9584 11.9717 18.9584 10.0475 18.9584H9.95251C8.02834 18.9584 6.52084 18.9584 5.34417 18.8C4.14084 18.6384 3.19084 18.3 2.44501 17.555C1.78417 16.8942 1.44251 16.0717 1.26167 15.05C1.08251 14.0475 1.05001 12.8 1.04334 11.2517C1.04167 10.8575 1.04167 10.4409 1.04167 10.0009V9.95252C1.04167 8.02835 1.04167 6.52085 1.20001 5.34419C1.36167 4.14085 1.70001 3.19085 2.44501 2.44502C3.19084 1.69919 4.14084 1.36169 5.34501 1.20002C6.52084 1.04169 8.02834 1.04169 9.95251 1.04169ZM5.51084 2.43835C4.44584 2.58169 3.80334 2.85502 3.32917 3.32919C2.85417 3.80419 2.58167 4.44585 2.43834 5.51169C2.29334 6.59502 2.29167 8.01835 2.29167 10V10.7034L3.12584 9.97335C3.49173 9.65306 3.96569 9.48382 4.4517 9.49991C4.93771 9.516 5.39943 9.71623 5.74334 10.06L9.31834 13.635C9.59576 13.9124 9.96213 14.083 10.353 14.1168C10.7438 14.1507 11.134 14.0456 11.455 13.82L11.7033 13.645C12.1664 13.3196 12.7262 13.161 13.2911 13.1951C13.8561 13.2291 14.3927 13.4539 14.8133 13.8325L17.1717 15.955C17.41 15.4567 17.5508 14.8017 17.6258 13.8775C17.7075 12.8734 17.7083 11.6217 17.7083 10C17.7083 8.01835 17.7067 6.59502 17.5617 5.51169C17.4183 4.44585 17.145 3.80335 16.6708 3.32835C16.1958 2.85419 15.5542 2.58169 14.4883 2.43835C13.405 2.29335 11.9817 2.29169 10 2.29169C8.01834 2.29169 6.59417 2.29335 5.51084 2.43835Z" fill="white"/>
</svg>
