<svg width="41" height="40" viewBox="0 0 41 40" fill="none" xmlns="http://www.w3.org/2000/svg">
<rect x="0.5" width="40" height="40" rx="20" fill="#0A7E80" fill-opacity="0.2"/>
<path fill-rule="evenodd" clip-rule="evenodd" d="M22.7124 15.7624C22.7124 18.4062 20.5489 20.5248 17.8493 20.5248C15.1507 20.5248 12.9863 18.4062 12.9863 15.7624C12.9863 13.1187 15.1507 11 17.8493 11C20.5489 11 22.7124 13.1187 22.7124 15.7624ZM10.5 25.9174C10.5 23.47 13.8855 22.8577 17.8493 22.8577C21.8347 22.8577 25.1987 23.4911 25.1987 25.9404C25.1987 28.3877 21.8131 29 17.8493 29C13.864 29 10.5 28.3666 10.5 25.9174ZM24.6734 15.8487C24.6734 17.1951 24.2605 18.4513 23.5364 19.4948C23.4611 19.6021 23.5276 19.7468 23.6587 19.7698C23.8407 19.7995 24.0276 19.8177 24.2184 19.8216C26.1167 19.8704 27.8202 18.6736 28.2908 16.8712C28.9885 14.1968 26.9415 11.7954 24.3339 11.7954C24.0511 11.7954 23.7801 11.8242 23.5159 11.8769C23.4797 11.8845 23.4405 11.9018 23.421 11.9325C23.3955 11.9717 23.4141 12.0225 23.4396 12.0561C24.2233 13.1322 24.6734 14.4421 24.6734 15.8487ZM27.8173 21.7023C29.0932 21.9466 29.9317 22.444 30.2791 23.1694C30.5736 23.7635 30.5736 24.4534 30.2791 25.0475C29.7478 26.1705 28.0335 26.5318 27.3672 26.6247C27.2292 26.6439 27.1186 26.5289 27.1333 26.3928C27.4738 23.2805 24.7664 21.8048 24.0658 21.4656C24.0364 21.4493 24.0296 21.4263 24.0325 21.411C24.0345 21.4014 24.0472 21.3861 24.0697 21.3832C25.5854 21.3545 27.2155 21.5586 27.8173 21.7023Z" fill="#0A7E80"/>
</svg>
