<svg width="40" height="40" viewBox="0 0 40 40" fill="none" xmlns="http://www.w3.org/2000/svg">
<rect width="40" height="40" rx="20" fill="#0A7E80" fill-opacity="0.25"/>
<path d="M29.2836 16.2758L23.3328 15.4109L20.6726 10.018C20.6 9.87031 20.4805 9.75078 20.3328 9.67812C19.9625 9.49531 19.5125 9.64765 19.3273 10.018L16.6672 15.4109L10.7164 16.2758C10.5523 16.2992 10.4023 16.3766 10.2875 16.4937C10.1486 16.6364 10.0721 16.8284 10.0748 17.0275C10.0774 17.2266 10.159 17.4165 10.3015 17.5555L14.607 21.7531L13.5898 27.6805C13.566 27.8183 13.5812 27.9602 13.6339 28.0898C13.6865 28.2195 13.7744 28.3318 13.8876 28.414C14.0009 28.4962 14.1349 28.5451 14.2744 28.555C14.414 28.565 14.5536 28.5356 14.6773 28.4703L20 25.6719L25.3226 28.4703C25.468 28.5477 25.6367 28.5734 25.7984 28.5453C26.2062 28.475 26.4805 28.0883 26.4101 27.6805L25.393 21.7531L29.6984 17.5555C29.8156 17.4406 29.893 17.2906 29.9164 17.1266C29.9797 16.7164 29.6937 16.3367 29.2836 16.2758Z" fill="#0A7E80"/>
</svg>
