<svg width="40" height="40" viewBox="0 0 40 40" fill="none" xmlns="http://www.w3.org/2000/svg">
<rect width="40" height="40" rx="20" fill="#0A7E80" fill-opacity="0.25"/>
<path fill-rule="evenodd" clip-rule="evenodd" d="M10 20.015C10 14.7471 14.21 10 20.02 10C25.7 10 30 14.657 30 19.985C30 26.1642 24.96 30 20 30C18.36 30 16.54 29.5593 15.08 28.698C14.57 28.3876 14.14 28.1572 13.59 28.3375L11.57 28.9384C11.06 29.0986 10.6 28.698 10.75 28.1572L11.42 25.9139C11.53 25.6034 11.51 25.2729 11.35 25.0125C10.49 23.4301 10 21.6975 10 20.015ZM18.7 20.015C18.7 20.7261 19.27 21.2969 19.98 21.307C20.69 21.307 21.26 20.7261 21.26 20.025C21.26 19.314 20.69 18.7431 19.98 18.7431C19.28 18.7331 18.7 19.314 18.7 20.015ZM23.31 20.025C23.31 20.7261 23.88 21.307 24.59 21.307C25.3 21.307 25.87 20.7261 25.87 20.025C25.87 19.314 25.3 18.7431 24.59 18.7431C23.88 18.7431 23.31 19.314 23.31 20.025ZM15.37 21.307C14.67 21.307 14.09 20.7261 14.09 20.025C14.09 19.314 14.66 18.7431 15.37 18.7431C16.08 18.7431 16.65 19.314 16.65 20.025C16.65 20.7261 16.08 21.2969 15.37 21.307Z" fill="#0A7E80"/>
</svg>
