<svg width="41" height="40" viewBox="0 0 41 40" fill="none" xmlns="http://www.w3.org/2000/svg">
<rect x="0.5" width="40" height="40" rx="20" fill="#0A7E80" fill-opacity="0.25"/>
<path fill-rule="evenodd" clip-rule="evenodd" d="M25.6799 12.41C25.6799 11.08 26.7599 10 28.0899 10C29.4199 10 30.4999 11.08 30.4999 12.41C30.4999 13.74 29.4199 14.82 28.0899 14.82C26.7599 14.82 25.6799 13.74 25.6799 12.41ZM21.8298 22.7593L24.7198 19.0303L24.6798 19.0503C24.8398 18.8303 24.8698 18.5503 24.7598 18.3003C24.6508 18.0503 24.4098 17.8803 24.1508 17.8603C23.8798 17.8303 23.6108 17.9503 23.4498 18.1703L21.0308 21.3003L18.2598 19.1203C18.0898 18.9903 17.8898 18.9393 17.6898 18.9603C17.4908 18.9903 17.3108 19.0993 17.1898 19.2593L14.2308 23.1103L14.1698 23.2003C13.9998 23.5193 14.0798 23.9293 14.3798 24.1503C14.5198 24.2403 14.6698 24.3003 14.8398 24.3003C15.0708 24.3103 15.2898 24.1893 15.4298 24.0003L17.9398 20.7693L20.7898 22.9103L20.8798 22.9693C21.1998 23.1393 21.5998 23.0603 21.8298 22.7593ZM23.9498 11.7803C23.9098 12.0303 23.8898 12.2803 23.8898 12.5303C23.8898 14.7803 25.7098 16.5993 27.9498 16.5993C28.1998 16.5993 28.4398 16.5703 28.6898 16.5303V24.5993C28.6898 27.9903 26.6898 30.0003 23.2898 30.0003H15.9008C12.4998 30.0003 10.4998 27.9903 10.4998 24.5993V17.2003C10.4998 13.8003 12.4998 11.7803 15.9008 11.7803H23.9498Z" fill="#0A7E80"/>
</svg>
